<svg width="166" height="32" viewBox="0 0 166 32" fill="none" xmlns="http://www.w3.org/2000/svg">
<path d="M14.707 13.175C12.2087 13.175 10.4242 12.4612 8.6397 12.4612C6.07716 12.4612 4 14.5383 4 17.1009C4 19.0995 5.26343 20.8019 7.03365 21.4551C7.03722 21.4551 7.04079 21.4551 7.04436 21.4551C8.97518 22.2295 10.3814 23.832 11.3236 25.8628C11.3379 25.8949 11.3521 25.9234 11.3664 25.9556C12.0909 27.5723 13.7148 28.6966 15.5992 28.6966C18.1618 28.6966 20.2389 26.6194 20.2389 24.0569C20.2389 21.4943 19.3467 20.3094 19.3467 17.8111C19.3467 15.3128 17.2695 13.1714 14.707 13.1714V13.175Z" fill="#F97316"/>
<path d="M14.5774 9.35064C15.6339 7.52071 15.4303 5.42527 14.1228 4.67033C12.8152 3.9154 10.8987 4.78686 9.84218 6.61679C8.78567 8.44672 8.9892 10.5422 10.2968 11.2971C11.6044 12.052 13.5208 11.1806 14.5774 9.35064Z" fill="#F97316"/>
<path d="M17.1589 11.1832C18.3438 12.1183 20.3674 11.5294 21.6737 9.86985C22.9799 8.21027 23.0799 6.10456 21.8914 5.16948C20.7065 4.23441 18.6829 4.82329 17.3766 6.48288C16.0703 8.14246 15.9704 10.2482 17.1589 11.1832Z" fill="#F97316"/>
<path d="M25.9779 15.1736C27.6732 13.9102 28.3156 11.9044 27.4126 10.6945C26.5097 9.48461 24.404 9.52387 22.7087 10.7873C21.0134 12.0507 20.371 14.0565 21.2739 15.2664C22.1769 16.4763 24.2826 16.437 25.9779 15.1736Z" fill="#F97316"/>
<path d="M27.5911 18.1894C26.6881 16.9795 24.5824 17.0187 22.8871 18.2822C21.1919 19.5456 20.5495 21.5514 21.4524 22.7613C22.3554 23.9712 24.4611 23.9319 26.1564 22.6685C27.8516 21.405 28.494 19.3993 27.5911 18.1894Z" fill="#F97316"/>
<path d="M37.992 26V8.12H44.304C45.488 8.12 46.528 8.344 47.424 8.792C48.32 9.24 49.016 9.88 49.512 10.712C50.024 11.544 50.28 12.52 50.28 13.64C50.28 14.76 50.024 15.736 49.512 16.568C49.016 17.384 48.32 18.024 47.424 18.488C46.544 18.936 45.504 19.16 44.304 19.16H40.344V26H37.992ZM40.344 17H44.376C45.096 17 45.72 16.864 46.248 16.592C46.776 16.32 47.184 15.928 47.472 15.416C47.76 14.904 47.904 14.312 47.904 13.64C47.904 12.952 47.76 12.36 47.472 11.864C47.184 11.352 46.776 10.96 46.248 10.688C45.72 10.416 45.096 10.28 44.376 10.28H40.344V17ZM58.68 26.288C57.432 26.288 56.32 25.992 55.344 25.4C54.368 24.808 53.6 24 53.04 22.976C52.48 21.936 52.2 20.776 52.2 19.496C52.2 18.2 52.472 17.048 53.016 16.04C53.576 15.032 54.328 14.24 55.272 13.664C56.232 13.072 57.304 12.776 58.488 12.776C59.448 12.776 60.296 12.952 61.032 13.304C61.784 13.64 62.416 14.104 62.928 14.696C63.456 15.272 63.856 15.936 64.128 16.688C64.416 17.424 64.56 18.192 64.56 18.992C64.56 19.168 64.544 19.368 64.512 19.592C64.496 19.8 64.472 20 64.44 20.192H53.832V18.272H63.144L62.088 19.136C62.232 18.304 62.152 17.56 61.848 16.904C61.544 16.248 61.096 15.728 60.504 15.344C59.912 14.96 59.24 14.768 58.488 14.768C57.736 14.768 57.048 14.96 56.424 15.344C55.8 15.728 55.312 16.28 54.96 17C54.624 17.704 54.488 18.544 54.552 19.52C54.488 20.464 54.632 21.296 54.984 22.016C55.352 22.72 55.864 23.272 56.52 23.672C57.192 24.056 57.92 24.248 58.704 24.248C59.568 24.248 60.296 24.048 60.888 23.648C61.48 23.248 61.96 22.736 62.328 22.112L64.2 23.072C63.944 23.664 63.544 24.208 63 24.704C62.472 25.184 61.84 25.568 61.104 25.856C60.384 26.144 59.576 26.288 58.68 26.288ZM72.7262 26.144C71.4622 26.144 70.4862 25.784 69.7982 25.064C69.1262 24.344 68.7902 23.328 68.7902 22.016V15.2H66.4382V13.064H66.9182C67.4942 13.064 67.9502 12.888 68.2862 12.536C68.6222 12.184 68.7902 11.72 68.7902 11.144V10.088H71.0222V13.064H73.9262V15.2H71.0222V21.944C71.0222 22.376 71.0862 22.752 71.2142 23.072C71.3582 23.392 71.5902 23.648 71.9102 23.84C72.2302 24.016 72.6542 24.104 73.1822 24.104C73.2942 24.104 73.4302 24.096 73.5902 24.08C73.7662 24.064 73.9262 24.048 74.0702 24.032V26C73.8622 26.048 73.6302 26.08 73.3742 26.096C73.1182 26.128 72.9022 26.144 72.7262 26.144ZM84.867 26V8.12H92.379C93.451 8.12 94.371 8.312 95.139 8.696C95.923 9.08 96.523 9.624 96.939 10.328C97.371 11.016 97.587 11.84 97.587 12.8C97.587 13.68 97.355 14.48 96.891 15.2C96.443 15.904 95.779 16.456 94.899 16.856L94.875 15.968C95.643 16.256 96.275 16.64 96.771 17.12C97.283 17.584 97.667 18.128 97.923 18.752C98.179 19.36 98.307 20.008 98.307 20.696C98.307 22.344 97.779 23.64 96.723 24.584C95.667 25.528 94.227 26 92.403 26H84.867ZM87.219 23.84H92.499C93.539 23.84 94.371 23.56 94.995 23C95.619 22.44 95.931 21.68 95.931 20.72C95.931 19.76 95.619 19 94.995 18.44C94.371 17.864 93.539 17.576 92.499 17.576H87.219V23.84ZM87.219 15.464H92.331C93.195 15.464 93.891 15.216 94.419 14.72C94.947 14.208 95.211 13.56 95.211 12.776C95.211 11.96 94.947 11.336 94.419 10.904C93.891 10.472 93.195 10.256 92.331 10.256H87.219V15.464ZM105.804 26.288C104.876 26.288 104.036 26.072 103.284 25.64C102.548 25.208 101.972 24.608 101.556 23.84C101.156 23.056 100.956 22.16 100.956 21.152V13.064H103.188V20.912C103.188 21.552 103.316 22.112 103.572 22.592C103.844 23.072 104.212 23.448 104.676 23.72C105.156 23.992 105.7 24.128 106.308 24.128C106.916 24.128 107.452 23.992 107.916 23.72C108.396 23.448 108.764 23.056 109.02 22.544C109.292 22.032 109.428 21.424 109.428 20.72V13.064H111.684V26H109.5V23.48L109.86 23.696C109.556 24.512 109.036 25.152 108.3 25.616C107.58 26.064 106.748 26.288 105.804 26.288ZM121.838 26.288C120.798 26.288 119.846 26.056 118.982 25.592C118.134 25.128 117.478 24.472 117.014 23.624L117.326 23.24V26H115.142V7.832H117.374V15.848L117.038 15.296C117.518 14.528 118.174 13.92 119.006 13.472C119.838 13.008 120.79 12.776 121.862 12.776C123.078 12.776 124.166 13.072 125.126 13.664C126.102 14.256 126.87 15.064 127.43 16.088C127.99 17.096 128.27 18.248 128.27 19.544C128.27 20.808 127.99 21.952 127.43 22.976C126.87 24 126.102 24.808 125.126 25.4C124.166 25.992 123.07 26.288 121.838 26.288ZM121.67 24.128C122.486 24.128 123.214 23.928 123.854 23.528C124.494 23.128 124.99 22.584 125.342 21.896C125.71 21.192 125.894 20.408 125.894 19.544C125.894 18.648 125.71 17.864 125.342 17.192C124.99 16.504 124.494 15.96 123.854 15.56C123.214 15.144 122.486 14.936 121.67 14.936C120.854 14.936 120.118 15.136 119.462 15.536C118.822 15.936 118.31 16.488 117.926 17.192C117.558 17.88 117.374 18.664 117.374 19.544C117.374 20.408 117.558 21.192 117.926 21.896C118.31 22.584 118.822 23.128 119.462 23.528C120.118 23.928 120.854 24.128 121.67 24.128ZM137.893 26.288C136.853 26.288 135.901 26.056 135.037 25.592C134.189 25.128 133.533 24.472 133.069 23.624L133.381 23.24V26H131.197V7.832H133.429V15.848L133.093 15.296C133.573 14.528 134.229 13.92 135.061 13.472C135.893 13.008 136.845 12.776 137.917 12.776C139.133 12.776 140.221 13.072 141.181 13.664C142.157 14.256 142.925 15.064 143.485 16.088C144.045 17.096 144.325 18.248 144.325 19.544C144.325 20.808 144.045 21.952 143.485 22.976C142.925 24 142.157 24.808 141.181 25.4C140.221 25.992 139.125 26.288 137.893 26.288ZM137.725 24.128C138.541 24.128 139.269 23.928 139.909 23.528C140.549 23.128 141.045 22.584 141.397 21.896C141.765 21.192 141.949 20.408 141.949 19.544C141.949 18.648 141.765 17.864 141.397 17.192C141.045 16.504 140.549 15.96 139.909 15.56C139.269 15.144 138.541 14.936 137.725 14.936C136.909 14.936 136.173 15.136 135.517 15.536C134.877 15.936 134.365 16.488 133.981 17.192C133.613 17.88 133.429 18.664 133.429 19.544C133.429 20.408 133.613 21.192 133.981 21.896C134.365 22.584 134.877 23.128 135.517 23.528C136.173 23.928 136.909 24.128 137.725 24.128ZM147.251 26V7.832H149.483V26H147.251ZM158.899 26.288C157.651 26.288 156.539 25.992 155.563 25.4C154.587 24.808 153.819 24 153.259 22.976C152.699 21.936 152.419 20.776 152.419 19.496C152.419 18.2 152.691 17.048 153.235 16.04C153.795 15.032 154.547 14.24 155.491 13.664C156.451 13.072 157.523 12.776 158.707 12.776C159.667 12.776 160.515 12.952 161.251 13.304C162.003 13.64 162.635 14.104 163.147 14.696C163.675 15.272 164.075 15.936 164.347 16.688C164.635 17.424 164.779 18.192 164.779 18.992C164.779 19.168 164.763 19.368 164.731 19.592C164.715 19.8 164.691 20 164.659 20.192H154.051V18.272H163.363L162.307 19.136C162.451 18.304 162.371 17.56 162.067 16.904C161.763 16.248 161.315 15.728 160.723 15.344C160.131 14.96 159.459 14.768 158.707 14.768C157.955 14.768 157.267 14.96 156.643 15.344C156.019 15.728 155.531 16.28 155.179 17C154.843 17.704 154.707 18.544 154.771 19.52C154.707 20.464 154.851 21.296 155.203 22.016C155.571 22.72 156.083 23.272 156.739 23.672C157.411 24.056 158.139 24.248 158.923 24.248C159.787 24.248 160.515 24.048 161.107 23.648C161.699 23.248 162.179 22.736 162.547 22.112L164.419 23.072C164.163 23.664 163.763 24.208 163.219 24.704C162.691 25.184 162.059 25.568 161.323 25.856C160.603 26.144 159.795 26.288 158.899 26.288Z" fill="#0F172A"/>
<path d="M77.8978 26V23.12H80.2258V26H77.8978Z" fill="#F97316"/>
</svg>
